<svg width="300" height="300" viewBox="0 0 300 300" fill="none" xmlns="http://www.w3.org/2000/svg">
<path d="M298.079 88.0196L225.644 202.798C222.909 207.114 219.313 210.818 215.08 213.678C210.848 216.538 206.071 218.492 201.049 219.418C196.027 220.344 190.868 220.221 185.896 219.058C180.923 217.896 176.244 215.717 172.152 212.66L114.522 169.488C111.946 167.554 108.812 166.508 105.592 166.508C102.371 166.508 99.2376 167.554 96.6613 169.488L18.8983 228.521C8.51936 236.396 -5.07452 223.952 1.92087 212.958L74.3554 98.1795C77.0897 93.8623 80.6857 90.1572 84.918 87.2965C89.1502 84.4357 93.9273 82.4811 98.9497 81.5551C103.972 80.6292 109.132 80.7519 114.104 81.9156C119.077 83.0793 123.756 85.2588 127.848 88.3175L185.458 131.48C188.034 133.414 191.168 134.459 194.388 134.459C197.609 134.459 200.742 133.414 203.319 131.48L281.121 72.5066C291.48 64.5812 305.074 77.0155 298.079 88.0196Z" fill="#0084FF"/>
</svg>
